<?xml version="1.0" standalone="no"?><!DOCTYPE svg PUBLIC "-//W3C//DTD SVG 1.1//EN" "http://www.w3.org/Graphics/SVG/1.1/DTD/svg11.dtd"><svg t="1613796465763" class="icon" viewBox="0 0 1024 1024" version="1.1" xmlns="http://www.w3.org/2000/svg" p-id="6979" xmlns:xlink="http://www.w3.org/1999/xlink" width="200" height="200"><defs><style type="text/css"></style></defs><path d="M685.909333 85.333333h144.469334A108.757333 108.757333 0 0 1 938.666667 194.56v145.706667a108.757333 108.757333 0 0 1-108.288 109.226666h-144.469334a108.757333 108.757333 0 0 1-108.330666-109.226666V194.56A108.757333 108.757333 0 0 1 685.909333 85.333333z" fill="#515151" opacity=".4" p-id="6980"></path><path d="M193.664 85.333333h144.426667a108.757333 108.757333 0 0 1 108.330666 109.226667v145.706667a108.757333 108.757333 0 0 1-108.330666 109.226666H193.706667A108.757333 108.757333 0 0 1 85.333333 340.224V194.56A108.757333 108.757333 0 0 1 193.664 85.333333z m0 489.216h144.426667a108.757333 108.757333 0 0 1 108.330666 109.226667v145.664A108.8 108.8 0 0 1 338.090667 938.666667H193.706667A108.8 108.8 0 0 1 85.333333 829.44v-145.706667a108.757333 108.757333 0 0 1 108.330667-109.226666z m636.714667 0h-144.469334a108.757333 108.757333 0 0 0-108.330666 109.226667v145.664A108.8 108.8 0 0 0 685.909333 938.666667h144.469334A108.8 108.8 0 0 0 938.666667 829.44v-145.706667a108.757333 108.757333 0 0 0-108.288-109.226666z" fill="#515151" p-id="6981"></path></svg>