<?xml version="1.0" standalone="no"?><!DOCTYPE svg PUBLIC "-//W3C//DTD SVG 1.1//EN" "http://www.w3.org/Graphics/SVG/1.1/DTD/svg11.dtd"><svg t="1613797388305" class="icon" viewBox="0 0 1024 1024" version="1.1" xmlns="http://www.w3.org/2000/svg" p-id="7296" xmlns:xlink="http://www.w3.org/1999/xlink" width="200" height="200"><defs><style type="text/css"></style></defs><path d="M982.016 404.48 573.344 84c-34.944-27.648-89.696-27.616-124.576 0L43.2 404.544c-13.856 10.976-16.224 31.104-5.28 44.96s31.104 16.224 44.96 5.28L96 444.416 96 832c0 54.944 56.928 96 107.872 96l640 0C894.176 928 928 889.408 928 832L928 443.456l14.496 11.36c5.888 4.608 12.8 6.816 19.712 6.816 9.504 0 18.912-4.192 25.216-12.256C998.336 435.488 995.904 415.36 982.016 404.48zM608 797.184 608 864l-63.968 0-64 0L416 864l0-66.816 0-112.32c0-37.216 30.048-77.248 96-77.248 65.984 0 96 40.032 96 77.248L608 797.184z" p-id="7297" fill="#5e82f8"></path></svg>