<?xml version="1.0" standalone="no"?><!DOCTYPE svg PUBLIC "-//W3C//DTD SVG 1.1//EN" "http://www.w3.org/Graphics/SVG/1.1/DTD/svg11.dtd"><svg t="1613796691661" class="icon" viewBox="0 0 1024 1024" version="1.1" xmlns="http://www.w3.org/2000/svg" p-id="17468" xmlns:xlink="http://www.w3.org/1999/xlink" width="200" height="200"><defs><style type="text/css"></style></defs><path d="M482.730667 723.498667a361.130667 361.130667 0 0 1-30.72-5.333334c-2.688-0.554667-5.461333-1.024-8.149334-1.621333a400.981333 400.981333 0 0 1-32.426666-9.173333c-31.018667-10.368-65.962667-2.56-86.4 21.418666-2.56 3.114667-4.864 6.4-7.253334 9.557334-2.986667 4.010667-6.144 7.850667-8.874666 11.989333-2.432 3.541333-4.437333 7.381333-6.656 11.050667-2.474667 4.224-5.12 8.362667-7.338667 12.714666-2.005333 3.84-3.584 7.936-5.333333 11.904-2.005333 4.437333-4.096 8.832-5.802667 13.44-1.493333 4.096-2.688 8.362667-3.925333 12.544-1.450667 4.693333-2.986667 9.301333-4.181334 14.08-1.024 4.309333-1.706667 8.746667-2.432 13.098667-0.896 4.864-1.877333 9.685333-2.432 14.677333-0.469333 4.48-0.554667 9.088-0.810666 13.610667-0.256 4.650667-0.597333 9.258667-0.554667 13.994667 4.821333 133.162667 522.837333 133.162667 527.616 0 0.042667-4.693333-0.256-9.386667-0.512-13.994667-0.213333-4.522667-0.298667-9.130667-0.853333-13.610667-0.554667-4.992-1.493333-9.813333-2.389334-14.677333-0.725333-4.352-1.408-8.789333-2.432-13.098667-1.152-4.778667-2.688-9.386667-4.138666-14.08-1.28-4.181333-2.432-8.448-3.968-12.544-1.664-4.608-3.754667-8.96-5.76-13.44-1.792-3.968-3.413333-8.021333-5.376-11.904-2.218667-4.352-4.864-8.533333-7.381334-12.714666-2.176-3.669333-4.224-7.509333-6.570666-11.050667-2.816-4.138667-5.888-7.978667-8.917334-11.989333-2.432-3.2-4.693333-6.442667-7.253333-9.557334-20.437333-23.978667-55.381333-31.786667-86.4-21.418666a401.92 401.92 0 0 1-32.426667 9.173333c-2.730667 0.597333-5.461333 1.066667-8.106666 1.621333a362.069333 362.069333 0 0 1-30.762667 5.333334c-3.626667 0.469333-7.210667 0.938667-10.837333 1.322666a387.968 387.968 0 0 1-39.68 2.304c-13.44 0-26.624-0.981333-39.68-2.304-3.669333-0.384-7.253333-0.853333-10.88-1.322666M810.666667 386.005333c0 142.506667-124.202667 258.090667-277.333334 258.090667-153.173333 0-277.333333-115.541333-277.333333-258.048S380.16 128 533.333333 128C686.464 128 810.666667 243.498667 810.666667 386.048" fill="#515151" p-id="17469"></path></svg>