<?xml version="1.0" standalone="no"?><!DOCTYPE svg PUBLIC "-//W3C//DTD SVG 1.1//EN" "http://www.w3.org/Graphics/SVG/1.1/DTD/svg11.dtd"><svg t="1613796385842" class="icon" viewBox="0 0 1024 1024" version="1.1" xmlns="http://www.w3.org/2000/svg" p-id="5071" xmlns:xlink="http://www.w3.org/1999/xlink" width="200" height="200"><defs><style type="text/css"></style></defs><path d="M384.00256 927.99168c0 53.02166-42.98666 96.00832-96.00832 96.00832s-96.00832-42.98666-96.00832-96.00832c0-53.02166 42.98666-96.00832 96.00832-96.00832s96.00832 42.98666 96.00832 96.00832z" p-id="5072" fill="#5e82f8"></path><path d="M1023.98976 927.99168c0 53.02166-42.98666 96.00832-96.00832 96.00832s-96.00832-42.98666-96.00832-96.00832c0-53.02166 42.98666-96.00832 96.00832-96.00832s96.00832 42.98666 96.00832 96.00832z" p-id="5073" fill="#5e82f8"></path><path d="M1023.98976 511.98976l0-383.99232-767.98464 0c0-35.347773-28.650947-63.99872-63.99872-63.99872l-191.99616 0 0 63.99872 127.99744 0 48.065599 412.049359c-29.285814 23.449131-48.065599 59.49321-48.065599 99.940401 0 70.695546 57.301894 127.99744 127.99744 127.99744l767.98464 0 0-63.99872-767.98464 0c-35.347773 0-63.99872-28.650947-63.99872-63.99872 0-0.225275 0.02048-0.430071 0.02048-0.655347l831.962881-127.342093z" p-id="5074" fill="#5e82f8"></path></svg>